<svg xmlns="http://www.w3.org/2000/svg" enable-background="new 0 0 24 24" height="48px" viewBox="0 0 24 24" width="48px" fill="#FFFFFF"><g><path d="M0,0h24v24H0V0z" fill="none"/><path d="M0,0h24v24H0V0z" fill="none"/></g><g><path d="M 994.5,424.5 C 996.527,424.338 998.527,424.505 1000.5,425C 1126.68,502.667 1253.01,580.167 1379.5,657.5C 1380.67,708.163 1380.83,758.83 1380,809.5C 1360.76,844.638 1342.6,880.305 1325.5,916.5C 1324.5,916.5 1323.5,916.5 1322.5,916.5C 1322.56,841.16 1321.89,765.827 1320.5,690.5C 1213.61,621.796 1105.77,554.463 997,488.5C 889.176,555.744 781.843,623.744 675,692.5C 674.805,768.166 674.971,843.833 675.5,919.5C 674.5,919.5 673.5,919.5 672.5,919.5C 654.939,883.379 637.106,847.379 619,811.5C 618.333,760.833 618.333,710.167 619,659.5C 744.45,581.53 869.617,503.197 994.5,424.5 Z M 994.5,508.5 C 996.604,508.201 998.604,508.534 1000.5,509.5C 1099.85,571.6 1199.35,633.6 1299,695.5C 1299.67,696.833 1299.67,698.167 1299,699.5C 1284.92,707.908 1271.09,716.741 1257.5,726C 1254.83,726.667 1252.17,726.667 1249.5,726C 1165.67,673.5 1081.83,621 998,568.5C 914.547,620.302 831.38,672.469 748.5,725C 745.5,727 742.5,727 739.5,725C 727.104,716.274 714.437,707.94 701.5,700C 700.124,697.46 700.79,695.46 703.5,694C 801.34,633.104 898.34,571.271 994.5,508.5 Z M 995.5,617.5 C 996.873,617.343 998.207,617.51 999.5,618C 1039.77,643.809 1080.43,669.142 1121.5,694C 1124.71,696.101 1127.71,698.434 1130.5,701C 1128.19,703.635 1125.53,705.968 1122.5,708C 1087.59,730.706 1052.76,753.539 1018,776.5C 1017.67,926.833 1017.33,1077.17 1017,1227.5C 1010.95,1232.02 1004.62,1236.02 998,1239.5C 991.12,1235.64 984.454,1231.31 978,1226.5C 977.667,1076.83 977.333,927.167 977,777.5C 939.052,753.114 901.219,728.614 863.5,704C 867.033,700.216 871.033,696.882 875.5,694C 916.007,669.131 956.007,643.631 995.5,617.5 Z M 1302.5,716.5 C 1303.5,716.5 1304.5,716.5 1305.5,716.5C 1305.67,826.501 1305.5,936.501 1305,1046.5C 1218.81,1100.68 1132.98,1155.52 1047.5,1211C 1045.65,1212.13 1043.65,1212.63 1041.5,1212.5C 1041.33,1192.16 1041.5,1171.83 1042,1151.5C 1112.69,1106.8 1183.35,1062.14 1254,1017.5C 1254.33,927.5 1254.67,837.5 1255,747.5C 1257.2,744.96 1259.7,742.793 1262.5,741C 1276.06,733.059 1289.4,724.892 1302.5,716.5 Z M 690.5,717.5 C 692.199,717.34 693.866,717.506 695.5,718C 711.476,726.478 726.809,735.978 741.5,746.5C 742.167,838.167 742.833,929.833 743.5,1021.5C 812.937,1065.73 882.27,1110.23 951.5,1155C 952.493,1173.76 952.826,1192.59 952.5,1211.5C 950.473,1211.66 948.473,1211.5 946.5,1211C 862.146,1155.49 777.146,1100.99 691.5,1047.5C 690.5,937.502 690.167,827.502 690.5,717.5 Z M 1162.5,721.5 C 1172.25,725.049 1181.25,730.216 1189.5,737C 1195.48,740.3 1201.48,743.634 1207.5,747C 1208.73,748.183 1208.73,749.349 1207.5,750.5C 1154.19,784.49 1101.19,818.99 1048.5,854C 1047.21,854.49 1045.87,854.657 1044.5,854.5C 1044.33,835.83 1044.5,817.164 1045,798.5C 1082.92,774.458 1120.75,750.291 1158.5,726C 1160.64,725.124 1161.97,723.624 1162.5,721.5 Z M 827.5,724.5 C 829.199,724.34 830.866,724.506 832.5,725C 870.997,750.083 909.664,774.916 948.5,799.5C 949.714,816.479 950.38,833.479 950.5,850.5C 947.255,850.12 944.255,848.953 941.5,847C 891,815.167 840.5,783.333 790,751.5C 789.316,750.216 789.483,749.049 790.5,748C 803.001,740.312 815.335,732.479 827.5,724.5 Z M 1186.5,793.5 C 1187.66,839.998 1187.83,886.665 1187,933.5C 1141.16,978.01 1094.66,1021.84 1047.5,1065C 1046.55,1065.48 1045.55,1065.65 1044.5,1065.5C 1044.33,1006.17 1044.5,946.832 1045,887.5C 1092.32,856.334 1139.49,825.001 1186.5,793.5 Z M 805.5,796.5 C 854.061,827.033 902.561,857.699 951,888.5C 951.5,946.832 951.667,1005.17 951.5,1063.5C 949.217,1063.39 947.217,1062.56 945.5,1061C 899.902,1020.56 853.568,981.063 806.5,942.5C 805.5,893.838 805.167,845.171 805.5,796.5 Z M 618.5,845.5 C 619.376,845.369 620.043,845.702 620.5,846.5C 638.061,883.289 655.894,919.956 674,956.5C 675.132,989.799 675.965,1023.13 676.5,1056.5C 783.768,1124.05 890.934,1191.71 998,1259.5C 1005.9,1255.13 1013.73,1250.63 1021.5,1246C 1121.67,1182.5 1221.83,1119 1322,1055.5C 1322.03,1024.45 1322.7,993.452 1324,962.5C 1330.45,944.94 1337.45,927.607 1345,910.5C 1356.5,888.824 1368,867.158 1379.5,845.5C 1380.67,925.165 1380.83,1004.83 1380,1084.5C 1253.42,1163.54 1126.92,1242.71 1000.5,1322C 998.5,1322.67 996.5,1322.67 994.5,1322C 869.87,1242.68 744.87,1163.85 619.5,1085.5C 618.5,1005.5 618.167,925.503 618.5,845.5 Z"/></g></svg>
